<?xml version="1.0" encoding="UTF-8"?>
<svg width="8px" height="6px" viewBox="0 0 8 6" version="1.1" xmlns="http://www.w3.org/2000/svg" xmlns:xlink="http://www.w3.org/1999/xlink">
    <!-- Generator: Sketch 48.1 (47250) - http://www.bohemiancoding.com/sketch -->
    <title>Shape</title>
    <desc>Created with Sketch.</desc>
    <defs></defs>
    <g id="cart" stroke="none" stroke-width="1" fill="none" fill-rule="evenodd" transform="translate(-296.000000, -247.000000)">
        <path d="M296.426435,247.002029 C296.150292,247.046212 295.962252,247.305887 296.006435,247.582029 C296.050617,247.858171 296.310292,248.046212 296.586435,248.002029 L298.086435,248.002029 L298.176435,248.252029 L298.586435,249.502029 L298.996435,250.752029 C299.036435,250.882029 299.206435,251.002029 299.336435,251.002029 L302.836435,251.002029 C302.976435,251.002029 303.136435,250.882029 303.176435,250.752029 L303.986435,248.252029 C304.026435,248.122029 303.966435,248.002029 303.826435,248.002029 L299.386435,248.002029 L299.006435,247.282029 C298.923915,247.113538 298.754017,247.005421 298.566435,247.002029 L296.566435,247.002029 C296.536496,246.999324 296.506374,246.999324 296.476435,247.002029 C296.456453,247.000828 296.436417,247.000828 296.416435,247.002029 L296.426435,247.002029 Z M299.586435,252.002029 C299.306435,252.002029 299.086435,252.222029 299.086435,252.502029 C299.086435,252.782029 299.306435,253.002029 299.586435,253.002029 C299.866435,253.002029 300.086435,252.782029 300.086435,252.502029 C300.086435,252.222029 299.866435,252.002029 299.586435,252.002029 Z M302.586435,252.002029 C302.306435,252.002029 302.086435,252.222029 302.086435,252.502029 C302.086435,252.782029 302.306435,253.002029 302.586435,253.002029 C302.866435,253.002029 303.086435,252.782029 303.086435,252.502029 C303.086435,252.222029 302.866435,252.002029 302.586435,252.002029 Z" id="Shape" fill="#9B59B6" fill-rule="nonzero"></path>
    </g>
</svg>