<?xml version="1.0" encoding="UTF-8"?>
<svg width="500px" height="500px" viewBox="0 0 500 500" version="1.1" xmlns="http://www.w3.org/2000/svg" xmlns:xlink="http://www.w3.org/1999/xlink">
    <!-- Generator: Sketch 48.1 (47250) - http://www.bohemiancoding.com/sketch -->
    <title>logo</title>
    <desc>Created with Sketch.</desc>
    <defs></defs>
    <g id="Page-1" stroke="none" stroke-width="1" fill="none" fill-rule="evenodd">
        <g id="logo">
            <rect id="Rectangle" fill="#000000" x="0" y="0" width="500" height="500" rx="180"></rect>
            <path d="M262,238 L330.000005,238 L330.000005,237.967832 C330.664045,237.989223 331.330766,238 332.000005,238 C365.689373,238 393.000001,210.68937 393.000001,177 C393.000001,143.31063 365.689373,116 332.000005,116 C331.330766,116 330.664045,116.010777 330.000005,116.032168 L330.000005,91.0227984 C330.664832,91.0076269 331.331528,91 332.000005,91 C379.496491,91 418,129.503512 418,177 C418,208.13551 401.454143,235.406527 376.675481,250.5 C401.454143,265.593473 418,292.86449 418,324 C418,371.496488 379.496491,410 332.000005,410 C331.331528,410 330.664832,409.992373 330,409.977201 L330.000005,384.967832 C330.664045,384.989223 331.330766,385 332.000005,385 C365.689373,385 393.000001,357.68937 393.000001,324 C393.000001,290.31063 365.689373,263 332.000005,263 C331.330766,263 330.664045,263.010777 330.000005,263.032168 L330.000005,263 L262,263 L262,360 L237,360 L237,263 L168.999995,263 L168.999995,263.032168 C168.335955,263.010777 167.669234,263 166.999995,263 C133.310627,263 105.999999,290.31063 105.999999,324 C105.999999,357.68937 133.310627,385 166.999995,385 C167.669234,385 168.335955,384.989223 168.999995,384.967832 L168.999995,409.977202 C168.335168,409.992373 167.668472,410 166.999995,410 C119.503509,410 81,371.496488 81,324 C81,292.86449 97.5458569,265.593473 122.324519,250.5 C97.5458569,235.406527 81,208.13551 81,177 C81,129.503512 119.503509,91 166.999995,91 C167.668472,91 168.335168,91.0076269 169,91.0227986 L168.999995,116.032168 C168.335955,116.010777 167.669234,116 166.999995,116 C133.310627,116 105.999999,143.31063 105.999999,177 C105.999999,210.68937 133.310627,238 166.999995,238 C167.669234,238 168.335955,237.989223 168.999995,237.967832 L168.999995,238 L237,238 L237,140 L262,140 L262,238 Z" id="Combined-Shape" fill="#FFFFFF" fill-rule="nonzero"></path>
        </g>
    </g>
</svg>