<?xml version="1.0" encoding="UTF-8"?>
<svg width="500px" height="500px" viewBox="0 0 500 500" version="1.1" xmlns="http://www.w3.org/2000/svg" xmlns:xlink="http://www.w3.org/1999/xlink">
    <!-- Generator: Sketch 48.1 (47250) - http://www.bohemiancoding.com/sketch -->
    <title>logo</title>
    <desc>Created with Sketch.</desc>
    <defs></defs>
    <g id="Page-1" stroke="none" stroke-width="1" fill="none" fill-rule="evenodd">
        <g id="logo">
            <g>
                <circle id="Oval" fill="#000000" cx="250" cy="250" r="250"></circle>
                <path d="M427,310 L427,341 L308,341 L308,309 L395,309 L395,266.5 L265,266.5 L265,315 L233,315 L233,266.5 L105,266.5 L105,309 L192,309 L192,341 L73,341 L73,310 L73,192 L73,160 L192,160 L192,192 L105,192 L105,234.5 L233,234.5 L233,184 L265,184 L265,234.5 L395,234.5 L395,192 L308,192 L308,160 L427,160 L427,192 L427,310 Z" id="Combined-Shape" fill="#FFFFFF"></path>
            </g>
        </g>
    </g>
</svg>